<svg version="1.1" xmlns="http://www.w3.org/2000/svg" xmlns:xlink="http://www.w3.org/1999/xlink" width="585.53431" height="269.92628" viewBox="0,0,585.53431,269.92628"><g transform="translate(52.76715,-45.10284)"><g data-paper-data="{&quot;isPaintingLayer&quot;:true}" fill-rule="nonzero" stroke="none" stroke-width="0" stroke-linecap="butt" stroke-linejoin="miter" stroke-miterlimit="10" stroke-dasharray="" stroke-dashoffset="0" style="mix-blend-mode: normal"><path d="M-6.07688,314.14334v-269.0405h486.29149v269.0405z" fill="#054b6b"/><path d="M-6.07689,314.52024v-91.49182h486.29149v91.49182z" fill="#1b3e57"/><g fill="#154961"><path d="M-4.28044,280.23592l-0.15622,-13.07111l6.94792,-135.30106c0,0 3.82048,8.44479 6.24568,7.78862c0.4458,-0.12061 1.29607,-0.25548 1.29607,-0.25548c0,0 -0.30977,1.19479 -0.9365,1.90321c-0.74977,0.84751 -2.24456,1.4137 -2.24456,1.4137c0,0 1.12449,4.65358 6.23007,2.80098c0.40328,-0.14633 1.66573,-0.828 1.66573,-0.828c0,0 -2.42584,5.47352 -4.08324,6.02062c-0.21358,0.0705 -1.59727,0.48228 -1.59727,0.48228c0,0 5.34061,7.68862 9.13458,5.00569c0.40816,-0.28863 1.53587,-0.90813 1.53587,-0.90813c0,0 -0.60494,6.8438 -4.62143,8.48701c-0.34553,0.14136 -1.9738,0.59429 -1.9738,0.59429c0,0 3.02454,8.43486 10.89718,4.53722c0.41055,-0.20326 3.6969,-1.98442 3.6969,-1.98442c0,0 -2.83977,9.77554 -9.94029,12.64614c-1.01619,0.41082 -2.30168,2.06399 -2.30168,2.06399c0,0 5.32105,8.96335 16.59054,8.77772c1.83585,-0.03024 11.0074,-1.3085 11.0074,-1.3085c0,0 -3.88477,9.62345 -17.98055,16.43949c-1.88664,0.91229 -5.8082,4.80051 -5.8082,4.80051c0,0 20.58593,9.07304 37.04225,6.82885c0.1642,-0.02239 1.42169,-0.27593 1.42169,-0.27593c0,0 -16.36439,13.64008 -23.17595,17.0756c-11.08692,5.41692 -24.86999,9.56499 -24.86999,9.56499v36.70173z"/><path d="M-4.56499,280.41826v-36.70173c0,0 -13.93928,-0.64887 -25.02621,-6.0658c-6.81156,-3.43552 -23.17595,-17.07559 -23.17595,-17.07559c0,0 1.25748,0.25354 1.42168,0.27593c16.45632,2.24419 39.68352,-12.50757 39.68352,-12.50757c0,0 -1.02828,-0.00009 -2.91492,-0.91238c-14.09578,-6.81604 -17.98055,-16.43949 -17.98055,-16.43949c0,0 9.17155,1.27825 11.0074,1.30849c11.26949,0.18563 11.05599,-6.98712 11.05599,-6.98712c0,0 -4.56352,-3.15931 -5.57971,-3.57013c-7.10053,-2.8706 -9.9403,-12.64613 -9.9403,-12.64613c0,0 3.28634,1.78115 3.69689,1.9844c7.87264,3.89765 14.17523,-3.03108 14.17523,-3.03108c0,0 -3.48878,-1.51608 -3.83431,-1.65743c-4.01648,-1.64321 -4.13414,-8.53131 -4.13414,-8.53131c0,0 2.50095,1.72693 2.90911,2.01556c3.79397,2.68293 9.13458,-5.00568 9.13458,-5.00568c0,0 -3.13349,-2.93354 -3.34706,-3.00404c-1.6574,-0.5471 -4.08324,-6.02061 -4.08324,-6.02061c0,0 1.26245,0.68166 1.66573,0.82799c5.10559,1.8526 7.40616,-2.45932 7.40616,-2.45932c0,0 -1.4948,-0.56619 -2.24457,-1.4137c-0.62673,-0.70842 -0.93648,-1.90321 -0.93648,-1.90321c0,0 0.85026,0.13488 1.29606,0.25549c2.42519,0.65617 6.81938,-9.30085 6.81938,-9.30085l6.94793,138.60713v13.26423z" data-paper-data="{&quot;index&quot;:null}"/></g><g fill="#154961"><path d="M460.10731,276.36971l-0.15622,-13.07111l6.94792,-135.30106c0,0 3.82048,8.44479 6.24568,7.78862c0.4458,-0.12061 1.29607,-0.25548 1.29607,-0.25548c0,0 -0.30977,1.19479 -0.9365,1.90321c-0.74977,0.84751 -2.24456,1.4137 -2.24456,1.4137c0,0 1.12449,4.65358 6.23007,2.80098c0.40328,-0.14633 1.66573,-0.828 1.66573,-0.828c0,0 -2.42584,5.47352 -4.08324,6.02062c-0.21358,0.0705 -1.59727,0.48228 -1.59727,0.48228c0,0 5.34061,7.68862 9.13458,5.00569c0.40816,-0.28863 1.53587,-0.90813 1.53587,-0.90813c0,0 -0.60494,6.8438 -4.62143,8.48701c-0.34553,0.14136 -1.9738,0.59429 -1.9738,0.59429c0,0 3.02454,8.43486 10.89718,4.53722c0.41055,-0.20326 3.69689,-1.98442 3.69689,-1.98442c0,0 -2.83977,9.77554 -9.94029,12.64614c-1.01619,0.41082 -2.30167,2.06399 -2.30167,2.06399c0,0 5.32104,8.96335 16.59053,8.77772c1.83585,-0.03024 11.0074,-1.3085 11.0074,-1.3085c0,0 -3.88477,9.62346 -17.98055,16.43949c-1.88664,0.91229 -5.8082,4.80051 -5.8082,4.80051c0,0 20.58594,9.07304 37.04225,6.82885c0.1642,-0.02239 1.42169,-0.27593 1.42169,-0.27593c0,0 -16.36439,13.64008 -23.17595,17.0756c-11.08693,5.41692 -24.86999,9.56499 -24.86999,9.56499v36.70173z"/><path d="M459.82277,276.55204v-36.70173c0,0 -13.93928,-0.64887 -25.02621,-6.0658c-6.81156,-3.43552 -23.17595,-17.07559 -23.17595,-17.07559c0,0 1.25748,0.25354 1.42168,0.27593c16.45632,2.24419 39.68352,-12.50757 39.68352,-12.50757c0,0 -1.02828,-0.00009 -2.91492,-0.91238c-14.09578,-6.81604 -17.98055,-16.43949 -17.98055,-16.43949c0,0 9.17155,1.27825 11.0074,1.30849c11.26949,0.18563 11.05599,-6.98712 11.05599,-6.98712c0,0 -4.56352,-3.15931 -5.57971,-3.57013c-7.10053,-2.8706 -9.9403,-12.64613 -9.9403,-12.64613c0,0 3.28634,1.78115 3.69689,1.9844c7.87264,3.89765 14.17523,-3.03108 14.17523,-3.03108c0,0 -3.48878,-1.51608 -3.83431,-1.65743c-4.01648,-1.64321 -4.13414,-8.53131 -4.13414,-8.53131c0,0 2.50095,1.72693 2.90911,2.01556c3.79397,2.68293 9.13458,-5.00568 9.13458,-5.00568c0,0 -3.13349,-2.93354 -3.34706,-3.00404c-1.6574,-0.5471 -4.08324,-6.02061 -4.08324,-6.02061c0,0 1.26245,0.68166 1.66573,0.82799c5.10559,1.8526 7.40616,-2.45932 7.40616,-2.45932c0,0 -1.4948,-0.56619 -2.24457,-1.4137c-0.62673,-0.70842 -0.93648,-1.90321 -0.93648,-1.90321c0,0 0.85026,0.13488 1.29606,0.25549c2.42519,0.65617 6.81938,-9.30085 6.81938,-9.30085l6.94793,138.60714v13.26423z" data-paper-data="{&quot;index&quot;:null}"/></g><g fill="#154961"><path d="M392.74903,276.66071l-0.15622,-13.07111l6.94793,-135.30106c0,0 3.82048,8.44479 6.24567,7.78862c0.4458,-0.12061 1.29607,-0.25548 1.29607,-0.25548c0,0 -0.30977,1.19479 -0.93649,1.9032c-0.74977,0.84751 -2.24456,1.4137 -2.24456,1.4137c0,0 1.12449,4.65358 6.23007,2.80098c0.40328,-0.14633 1.66573,-0.82799 1.66573,-0.82799c0,0 -2.42584,5.47351 -4.08324,6.02062c-0.21358,0.0705 -1.59727,0.48229 -1.59727,0.48229c0,0 5.34061,7.68861 9.13458,5.00569c0.40816,-0.28863 1.53587,-0.90812 1.53587,-0.90812c0,0 -0.60494,6.8438 -4.62143,8.48701c-0.34553,0.14136 -1.9738,0.59429 -1.9738,0.59429c0,0 3.02455,8.43486 10.89719,4.53721c0.41055,-0.20326 3.6969,-1.98442 3.6969,-1.98442c0,0 -2.83977,9.77555 -9.94029,12.64615c-1.01619,0.41082 -2.30168,2.06399 -2.30168,2.06399c0,0 5.32105,8.96335 16.59054,8.77772c1.83585,-0.03024 11.0074,-1.3085 11.0074,-1.3085c0,0 -3.88477,9.62345 -17.98055,16.43949c-1.88665,0.91229 -5.8082,4.80051 -5.8082,4.80051c0,0 20.58594,9.07304 37.04225,6.82885c0.1642,-0.02239 1.42169,-0.27593 1.42169,-0.27593c0,0 -16.36439,13.64008 -23.17595,17.0756c-11.08692,5.41692 -24.87,9.56499 -24.87,9.56499v36.70173z"/><path d="M392.46449,276.84305v-36.70173c0,0 -13.93929,-0.64887 -25.02621,-6.0658c-6.81156,-3.43552 -23.17595,-17.0756 -23.17595,-17.0756c0,0 1.25749,0.25355 1.42169,0.27594c16.45632,2.24419 39.68352,-12.50758 39.68352,-12.50758c0,0 -1.02828,-0.00009 -2.91492,-0.91238c-14.09578,-6.81604 -17.98055,-16.43948 -17.98055,-16.43948c0,0 9.17155,1.27825 11.0074,1.30849c11.26949,0.18563 11.05599,-6.98712 11.05599,-6.98712c0,0 -4.56353,-3.1593 -5.57971,-3.57013c-7.10053,-2.8706 -9.9403,-12.64614 -9.9403,-12.64614c0,0 3.28634,1.78115 3.69689,1.98441c7.87264,3.89765 14.17523,-3.03108 14.17523,-3.03108c0,0 -3.48878,-1.51608 -3.83431,-1.65744c-4.01648,-1.64321 -4.13414,-8.53131 -4.13414,-8.53131c0,0 2.50095,1.72693 2.90911,2.01556c3.79397,2.68293 9.13458,-5.00568 9.13458,-5.00568c0,0 -3.13349,-2.93354 -3.34706,-3.00404c-1.6574,-0.5471 -4.08324,-6.02062 -4.08324,-6.02062c0,0 1.26246,0.68166 1.66574,0.82799c5.10558,1.8526 7.40616,-2.45932 7.40616,-2.45932c0,0 -1.4948,-0.5662 -2.24457,-1.41371c-0.62672,-0.70842 -0.93648,-1.90321 -0.93648,-1.90321c0,0 0.85026,0.13488 1.29606,0.2555c2.42519,0.65617 6.81938,-9.30086 6.81938,-9.30086l6.94793,138.60714v13.26423z" data-paper-data="{&quot;index&quot;:null}"/></g><g fill="#154961"><path d="M174.97504,283.37651l-0.15622,-13.07111l6.94792,-135.30106c0,0 3.82048,8.44479 6.24568,7.78862c0.4458,-0.12061 1.29607,-0.25548 1.29607,-0.25548c0,0 -0.30977,1.19479 -0.93649,1.9032c-0.74977,0.84751 -2.24456,1.4137 -2.24456,1.4137c0,0 1.12449,4.65358 6.23007,2.80098c0.40328,-0.14633 1.66573,-0.82799 1.66573,-0.82799c0,0 -2.42583,5.47351 -4.08324,6.02062c-0.21358,0.0705 -1.59727,0.48229 -1.59727,0.48229c0,0 5.34061,7.68861 9.13458,5.00569c0.40816,-0.28863 1.53588,-0.90812 1.53588,-0.90812c0,0 -0.60495,6.8438 -4.62143,8.48701c-0.34553,0.14136 -1.9738,0.59428 -1.9738,0.59428c0,0 3.02455,8.43486 10.89719,4.53722c0.41055,-0.20326 3.6969,-1.98442 3.6969,-1.98442c0,0 -2.83977,9.77555 -9.9403,12.64615c-1.01619,0.41082 -2.30167,2.06399 -2.30167,2.06399c0,0 5.32104,8.96335 16.59053,8.77772c1.83586,-0.03024 11.0074,-1.3085 11.0074,-1.3085c0,0 -3.88477,9.62345 -17.98055,16.43949c-1.88664,0.91229 -5.8082,4.80051 -5.8082,4.80051c0,0 20.58593,9.07304 37.04225,6.82885c0.1642,-0.02239 1.42169,-0.27593 1.42169,-0.27593c0,0 -16.36439,13.64008 -23.17595,17.0756c-11.08693,5.41692 -24.87,9.565 -24.87,9.565v36.70173z"/><path d="M174.69049,283.55884v-36.70173c0,0 -13.93929,-0.64886 -25.02621,-6.0658c-6.81156,-3.43552 -23.17595,-17.0756 -23.17595,-17.0756c0,0 1.25749,0.25355 1.42168,0.27594c16.45632,2.24419 39.68352,-12.50757 39.68352,-12.50757c0,0 -1.02828,-0.00009 -2.91492,-0.91238c-14.09578,-6.81604 -17.98055,-16.43948 -17.98055,-16.43948c0,0 9.17155,1.27825 11.0074,1.30849c11.26949,0.18563 11.05599,-6.98712 11.05599,-6.98712c0,0 -4.56352,-3.1593 -5.57971,-3.57012c-7.10053,-2.8706 -9.9403,-12.64614 -9.9403,-12.64614c0,0 3.28634,1.78115 3.69689,1.98441c7.87264,3.89765 14.17523,-3.03108 14.17523,-3.03108c0,0 -3.48878,-1.51608 -3.83431,-1.65744c-4.01648,-1.64321 -4.13414,-8.53131 -4.13414,-8.53131c0,0 2.50095,1.72693 2.90911,2.01557c3.79397,2.68293 9.13458,-5.00568 9.13458,-5.00568c0,0 -3.13349,-2.93354 -3.34706,-3.00404c-1.65741,-0.5471 -4.08324,-6.02061 -4.08324,-6.02061c0,0 1.26246,0.68166 1.66574,0.82799c5.10558,1.8526 7.40616,-2.45932 7.40616,-2.45932c0,0 -1.4948,-0.5662 -2.24457,-1.41371c-0.62672,-0.70842 -0.93648,-1.90321 -0.93648,-1.90321c0,0 0.85027,0.13488 1.29606,0.2555c2.4252,0.65617 6.81938,-9.30086 6.81938,-9.30086l6.94793,138.60714v13.26423z" data-paper-data="{&quot;index&quot;:null}"/></g><g fill="#154961"><path d="M260.26058,276.19608l-0.1354,-11.32846l6.02162,-117.26266c0,0 3.31114,7.31893 5.413,6.75024c0.38637,-0.10453 1.12328,-0.22143 1.12328,-0.22143c0,0 -0.26847,1.0355 -0.81164,1.64947c-0.64981,0.73452 -1.94531,1.22523 -1.94531,1.22523c0,0 0.97457,4.03316 5.39948,2.42755c0.34951,-0.12682 1.44365,-0.71761 1.44365,-0.71761c0,0 -2.10242,4.74378 -3.53886,5.21795c-0.18511,0.0611 -1.38432,0.41799 -1.38432,0.41799c0,0 4.6286,6.66356 7.91676,4.33832c0.35375,-0.25015 1.33111,-0.78705 1.33111,-0.78705c0,0 -0.52429,5.93138 -4.00529,7.35551c-0.29946,0.12251 -1.71065,0.51505 -1.71065,0.51505c0,0 2.62131,7.31032 9.44437,3.93231c0.35582,-0.17615 3.20402,-1.71985 3.20402,-1.71985c0,0 -2.46117,8.47227 -8.61505,10.96016c-0.8807,0.35605 -1.99482,1.78881 -1.99482,1.78881c0,0 4.61164,7.76835 14.37868,7.60747c1.5911,-0.02621 9.53989,-1.13405 9.53989,-1.13405c0,0 -3.36685,8.34045 -15.58337,14.24777c-1.63511,0.79066 -5.03384,4.16051 -5.03384,4.16051c0,0 17.8414,7.86343 32.10376,5.91843c0.14231,-0.01941 1.23215,-0.23915 1.23215,-0.23915c0,0 -14.18268,11.82158 -20.08612,14.79908c-9.60881,4.69474 -21.55431,8.28978 -21.55431,8.28978v31.80863z"/><path d="M260.01397,276.35411v-31.80864c0,0 -12.08089,-0.56236 -21.6897,-5.2571c-5.90344,-2.9775 -20.08612,-14.79907 -20.08612,-14.79907c0,0 1.08983,0.21974 1.23215,0.23915c14.26236,1.945 34.39289,-10.84006 34.39289,-10.84006c0,0 -0.89119,-0.00007 -2.5263,-0.79074c-12.21652,-5.90732 -15.58337,-14.24777 -15.58337,-14.24777c0,0 7.94878,1.10783 9.53988,1.13404c9.76704,0.16088 9.58201,-6.0556 9.58201,-6.0556c0,0 -3.95512,-2.7381 -4.83582,-3.09415c-6.15388,-2.48789 -8.61505,-10.96015 -8.61505,-10.96015c0,0 2.8482,1.54369 3.20402,1.71984c6.82306,3.37801 12.28538,-2.62698 12.28538,-2.62698c0,0 -3.02365,-1.31395 -3.32312,-1.43646c-3.48101,-1.42414 -3.58298,-7.39391 -3.58298,-7.39391c0,0 2.16752,1.4967 2.52126,1.74685c3.28816,2.32523 7.91676,-4.33832 7.91676,-4.33832c0,0 -2.71574,-2.54244 -2.90084,-2.60354c-1.43644,-0.47416 -3.53886,-5.21795 -3.53886,-5.21795c0,0 1.09415,0.59078 1.44366,0.7176c4.42491,1.60561 6.41876,-2.13144 6.41876,-2.13144c0,0 -1.29551,-0.49071 -1.94532,-1.22523c-0.54317,-0.61397 -0.81163,-1.64948 -0.81163,-1.64948c0,0 0.73691,0.1169 1.12327,0.22144c2.10186,0.56869 5.91021,-8.06086 5.91021,-8.06086l6.02163,120.12796v11.49584z" data-paper-data="{&quot;index&quot;:null}"/></g><g fill="#154961"><path d="M349.57948,289.93629v-12.15422l6.21666,-123.67876c0,0 3.50745,7.61538 5.72969,7.01412c0.4085,-0.11052 1.18761,-0.23411 1.18761,-0.23411c0,0 -0.28385,1.09481 -0.85813,1.74394c-0.68703,0.77659 -2.05672,1.2954 -2.05672,1.2954c0,0 1.03039,4.26414 5.70871,2.56658c0.36953,-0.13409 1.52634,-0.7587 1.52634,-0.7587c0,0 -2.22283,5.01547 -3.74153,5.51679c-0.19571,0.06461 -1.46361,0.44192 -1.46361,0.44192c0,0 4.89369,7.04518 8.37016,4.58678c0.37401,-0.26448 1.40733,-0.83212 1.40733,-0.83212c0,0 -0.55431,6.27107 -4.23468,7.77677c-0.31662,0.12953 -1.80862,0.54456 -1.80862,0.54456c0,0 2.77143,7.72898 9.98525,4.15751c0.37619,-0.18625 3.38752,-1.81834 3.38752,-1.81834c0,0 -2.60212,8.95748 -9.10844,11.58786c-0.93115,0.37644 -2.10906,1.89126 -2.10906,1.89126c0,0 4.87576,8.21325 15.20216,8.04316c1.68223,-0.02771 10.08625,-1.199 10.08625,-1.199c0,0 -3.55966,8.81812 -16.47584,15.06376c-1.72876,0.83595 -5.32215,4.39878 -5.32215,4.39878c0,0 18.8632,8.31378 33.94238,6.25739c0.15046,-0.02051 1.30271,-0.25284 1.30271,-0.25284c0,0 -14.99493,12.49862 -21.23647,15.64664c-10.15912,4.96362 -22.78875,8.76454 -22.78875,8.76454v33.63036z"/><path d="M349.31874,290.10336v-33.63036c0,0 -12.62963,-3.80094 -22.78875,-8.76456c-6.24154,-3.14803 -21.23648,-15.64664 -21.23648,-15.64664c0,0 1.15225,0.23233 1.30271,0.25285c15.07918,2.05639 33.94237,-6.25738 33.94237,-6.25738c0,0 -3.59338,-3.56284 -5.32214,-4.39879c-12.91618,-6.24564 -16.47584,-15.06376 -16.47584,-15.06376c0,0 8.40402,1.17129 10.08625,1.199c10.3264,0.17009 15.20216,-8.04316 15.20216,-8.04316c0,0 -1.17791,-1.51482 -2.10906,-1.89127c-6.50633,-2.63037 -9.10845,-11.58785 -9.10845,-11.58785c0,0 3.01135,1.63209 3.38753,1.81834c7.21382,3.57147 9.98525,-4.15751 9.98525,-4.15751c0,0 -1.492,-0.41503 -1.80862,-0.54456c-3.68036,-1.5057 -4.23468,-7.77678 -4.23468,-7.77678c0,0 1.03334,0.56764 1.40734,0.83212c3.47647,2.4584 8.37016,-4.58678 8.37016,-4.58678c0,0 -1.2679,-0.37732 -1.46362,-0.44192c-1.51871,-0.50132 -3.74153,-5.51678 -3.74153,-5.51678c0,0 1.15681,0.62462 1.52634,0.7587c4.67832,1.69756 5.70871,-2.56658 5.70871,-2.56658c0,0 -1.3697,-0.51882 -2.05673,-1.29541c-0.57428,-0.64914 -0.85811,-1.74394 -0.85811,-1.74394c0,0 0.77911,0.12359 1.1876,0.23412c2.22224,0.60127 5.57986,-7.3138 5.57986,-7.3138l6.3665,123.97843v12.15422z" data-paper-data="{&quot;index&quot;:null}"/></g><g fill="#154961"><path d="M109.03739,289.83689v-13.06238l6.68116,-132.91992c0,0 3.76952,8.18439 6.15781,7.5382c0.43901,-0.11878 1.27634,-0.2516 1.27634,-0.2516c0,0 -0.30505,1.17661 -0.92224,1.87425c-0.73837,0.83462 -2.2104,1.39219 -2.2104,1.39219c0,0 1.10738,4.58276 6.13526,2.75835c0.39714,-0.14411 1.64039,-0.81539 1.64039,-0.81539c0,0 -2.38891,5.39021 -4.0211,5.92899c-0.21034,0.06943 -1.57297,0.47495 -1.57297,0.47495c0,0 5.25934,7.57159 8.99557,4.9295c0.40195,-0.28424 1.51249,-0.8943 1.51249,-0.8943c0,0 -0.59573,6.73965 -4.55109,8.35785c-0.34027,0.13921 -1.94376,0.58525 -1.94376,0.58525c0,0 2.97852,8.30648 10.73135,4.46815c0.40429,-0.20016 3.64064,-1.95421 3.64064,-1.95421c0,0 -2.79655,9.62677 -9.78902,12.45369c-1.00072,0.40457 -2.26665,2.03258 -2.26665,2.03258c0,0 5.24007,8.82694 16.33805,8.64414c1.80792,-0.02978 10.83988,-1.28858 10.83988,-1.28858c0,0 -3.82564,9.477 -17.7069,16.18931c-1.85793,0.89841 -5.71982,4.72745 -5.71982,4.72745c0,0 20.27265,8.93497 36.47853,6.72493c0.1617,-0.02205 1.40004,-0.27173 1.40004,-0.27173c0,0 -16.11534,13.4325 -22.82324,16.81574c-10.9182,5.3345 -24.49151,9.41942 -24.49151,9.41942v36.14319z"/><path d="M108.75717,290.01644v-36.14319c0,0 -13.57331,-4.08493 -24.49151,-9.41943c-6.7079,-3.38324 -22.82324,-16.81574 -22.82324,-16.81574c0,0 1.23835,0.24969 1.40005,0.27174c16.20588,2.21004 36.47852,-6.72494 36.47852,-6.72494c0,0 -3.86187,-3.82904 -5.7198,-4.72745c-13.88126,-6.71231 -17.70691,-16.18931 -17.70691,-16.18931c0,0 9.03196,1.2588 10.83988,1.28858c11.09798,0.1828 16.33805,-8.64413 16.33805,-8.64413c0,0 -1.26592,-1.62801 -2.26664,-2.03258c-6.99247,-2.82692 -9.78903,-12.45369 -9.78903,-12.45369c0,0 3.23634,1.75405 3.64064,1.95421c7.75283,3.83832 10.73135,-4.46816 10.73135,-4.46816c0,0 -1.60348,-0.44603 -1.94376,-0.58524c-3.95536,-1.6182 -4.55109,-8.35785 -4.55109,-8.35785c0,0 1.11055,0.61006 1.5125,0.8943c3.73623,2.64209 8.99557,-4.92951 8.99557,-4.92951c0,0 -1.36264,-0.40552 -1.57297,-0.47495c-1.63219,-0.53878 -4.0211,-5.92899 -4.0211,-5.92899c0,0 1.24324,0.67128 1.64038,0.81539c5.02788,1.82441 6.13527,-2.75835 6.13527,-2.75835c0,0 -1.47204,-0.55758 -2.2104,-1.39219c-0.61719,-0.69764 -0.92224,-1.87425 -0.92224,-1.87425c0,0 0.83732,0.13283 1.27633,0.25161c2.38829,0.64619 5.99678,-7.86028 5.99678,-7.86028l6.8422,133.24199v13.06237z" data-paper-data="{&quot;index&quot;:null}"/></g><g fill="#08576d"><path d="M374.03494,280.67573v-15.55931l7.95829,-158.32816c0,0 4.49008,9.74887 7.3349,8.97916c0.52294,-0.14148 1.52032,-0.2997 1.52032,-0.2997c0,0 -0.36336,1.40152 -1.09853,2.23252c-0.8795,0.99416 -2.63293,1.65831 -2.63293,1.65831c0,0 1.31906,5.45877 7.30805,3.28562c0.47306,-0.17165 1.95395,-0.97125 1.95395,-0.97125c0,0 -2.84556,6.42058 -4.78975,7.06235c-0.25054,0.0827 -1.87365,0.56573 -1.87365,0.56573c0,0 6.26469,9.01895 10.71511,5.8718c0.47879,-0.33857 1.80161,-1.06525 1.80161,-1.06525c0,0 -0.70961,8.02796 -5.42106,9.95549c-0.40532,0.16582 -2.31531,0.69712 -2.31531,0.69712c0,0 3.54787,9.8943 12.78269,5.32226c0.48158,-0.23843 4.33655,-2.32776 4.33655,-2.32776c0,0 -3.33112,11.46698 -11.66023,14.83427c-1.19201,0.48191 -2.69992,2.42111 -2.69992,2.42111c0,0 6.24174,10.51425 19.46115,10.29651c2.15351,-0.03547 12.91197,-1.53491 12.91197,-1.53491c0,0 -4.55693,11.28857 -21.09166,19.28397c-2.21308,1.07014 -6.81318,5.63112 -6.81318,5.63112c0,0 24.14785,10.64293 43.45156,8.01044c0.19261,-0.02626 1.66767,-0.32368 1.66767,-0.32368c0,0 -19.19587,16.00019 -27.18601,20.03014c-13.00527,6.3542 -29.17317,11.21999 -29.17317,11.21999v43.05212z"/><path d="M373.70116,280.8896v-43.05211c0,0 -16.1679,-4.86579 -29.17317,-11.22c-7.99015,-4.02996 -27.18601,-20.03015 -27.18601,-20.03015c0,0 1.47506,0.29742 1.66767,0.32368c19.3037,2.6325 43.45156,-8.01044 43.45156,-8.01044c0,0 -4.60009,-4.56098 -6.81317,-5.63113c-16.53472,-7.9954 -21.09166,-19.28396 -21.09166,-19.28396c0,0 10.75846,1.49943 12.91197,1.5349c13.21941,0.21775 19.46115,-10.2965 19.46115,-10.2965c0,0 -1.50791,-1.93921 -2.69992,-2.42111c-8.32911,-3.36729 -11.66025,-14.83427 -11.66025,-14.83427c0,0 3.85498,2.08934 4.33656,2.32776c9.23482,4.57204 12.78269,-5.32227 12.78269,-5.32227c0,0 -1.90999,-0.5313 -2.31531,-0.69711c-4.71145,-1.92754 -5.42105,-9.95549 -5.42105,-9.95549c0,0 1.32283,0.72668 1.80161,1.06525c4.45042,3.14714 10.71511,-5.8718 10.71511,-5.8718c0,0 -1.62311,-0.48303 -1.87365,-0.56573c-1.94419,-0.64177 -4.78974,-7.06235 -4.78974,-7.06235c0,0 1.48089,0.79961 1.95395,0.97126c5.98899,2.17315 7.30805,-3.28562 7.30805,-3.28562c0,0 -1.75343,-0.66416 -2.63294,-1.65832c-0.73517,-0.831 -1.09852,-2.23252 -1.09852,-2.23252c0,0 0.99738,0.15822 1.52031,0.2997c2.84483,0.76971 7.14309,-9.3628 7.14309,-9.3628l8.15011,158.71179v15.55931z" data-paper-data="{&quot;index&quot;:null}"/></g><g fill="#08576d"><path d="M152.06206,284.42463v-15.55931l7.95829,-158.32815c0,0 4.49008,9.74887 7.3349,8.97916c0.52293,-0.14148 1.52032,-0.29969 1.52032,-0.29969c0,0 -0.36336,1.40152 -1.09853,2.23252c-0.8795,0.99416 -2.63293,1.65831 -2.63293,1.65831c0,0 1.31906,5.45877 7.30805,3.28562c0.47306,-0.17165 1.95395,-0.97125 1.95395,-0.97125c0,0 -2.84556,6.42058 -4.78975,7.06235c-0.25054,0.0827 -1.87365,0.56573 -1.87365,0.56573c0,0 6.26469,9.01895 10.71511,5.8718c0.47878,-0.33857 1.80161,-1.06525 1.80161,-1.06525c0,0 -0.70961,8.02795 -5.42105,9.95549c-0.40532,0.16582 -2.31531,0.69712 -2.31531,0.69712c0,0 3.54787,9.8943 12.78269,5.32226c0.48158,-0.23843 4.33656,-2.32776 4.33656,-2.32776c0,0 -3.33112,11.46698 -11.66023,14.83427c-1.19201,0.48191 -2.69993,2.42111 -2.69993,2.42111c0,0 6.24174,10.51425 19.46115,10.2965c2.15351,-0.03547 12.91197,-1.5349 12.91197,-1.5349c0,0 -4.55693,11.28857 -21.09166,19.28397c-2.21308,1.07014 -6.81318,5.63112 -6.81318,5.63112c0,0 24.14785,10.64293 43.45156,8.01044c0.19261,-0.02627 1.66767,-0.32367 1.66767,-0.32367c0,0 -19.19586,16.00018 -27.18601,20.03014c-13.00527,6.3542 -29.17317,11.21999 -29.17317,11.21999v43.05212z"/><path d="M151.72828,284.63851v-43.05212c0,0 -16.1679,-4.86579 -29.17317,-11.22c-7.99015,-4.02996 -27.18601,-20.03015 -27.18601,-20.03015c0,0 1.47506,0.29742 1.66767,0.32369c19.30371,2.6325 43.45155,-8.01044 43.45155,-8.01044c0,0 -4.60009,-4.56098 -6.81317,-5.63113c-16.53473,-7.9954 -21.09166,-19.28397 -21.09166,-19.28397c0,0 10.75846,1.49943 12.91197,1.5349c13.21941,0.21775 19.46115,-10.29649 19.46115,-10.29649c0,0 -1.50791,-1.93921 -2.69992,-2.42111c-8.32911,-3.36729 -11.66025,-14.83427 -11.66025,-14.83427c0,0 3.85498,2.08934 4.33656,2.32776c9.23482,4.57204 12.78269,-5.32227 12.78269,-5.32227c0,0 -1.91,-0.5313 -2.31532,-0.69711c-4.71144,-1.92754 -5.42105,-9.95549 -5.42105,-9.95549c0,0 1.32282,0.72668 1.80161,1.06525c4.45042,3.14714 10.71511,-5.8718 10.71511,-5.8718c0,0 -1.62311,-0.48303 -1.87365,-0.56573c-1.94419,-0.64177 -4.78975,-7.06235 -4.78975,-7.06235c0,0 1.48089,0.79961 1.95395,0.97126c5.98899,2.17315 7.30805,-3.28562 7.30805,-3.28562c0,0 -1.75343,-0.66416 -2.63294,-1.65832c-0.73517,-0.831 -1.09852,-2.23252 -1.09852,-2.23252c0,0 0.99738,0.15822 1.52032,0.2997c2.84483,0.76971 7.14309,-9.36281 7.14309,-9.36281l8.15011,158.7118v15.5593z" data-paper-data="{&quot;index&quot;:null}"/></g><g fill="#08576d"><path d="M76.03661,285.13666v-13.72368l7.0194,-139.64913c0,0 3.96036,8.59873 6.46956,7.91983c0.46124,-0.1248 1.34096,-0.26434 1.34096,-0.26434c0,0 -0.32049,1.23618 -0.96893,1.96913c-0.77575,0.87687 -2.3223,1.46267 -2.3223,1.46267c0,0 1.16344,4.81477 6.44587,2.898c0.41725,-0.15141 1.72343,-0.85667 1.72343,-0.85667c0,0 -2.50986,5.6631 -4.22467,6.22915c-0.22098,0.07295 -1.65261,0.49899 -1.65261,0.49899c0,0 5.5256,7.95491 9.45098,5.17906c0.4223,-0.29863 1.58907,-0.93957 1.58907,-0.93957c0,0 -0.62589,7.08085 -4.7815,8.78098c-0.3575,0.14625 -2.04216,0.61487 -2.04216,0.61487c0,0 3.12931,8.72701 11.27463,4.69436c0.42476,-0.2103 3.82494,-2.05314 3.82494,-2.05314c0,0 -2.93813,10.11414 -10.2846,13.08417c-1.05138,0.42505 -2.3814,2.13548 -2.3814,2.13548c0,0 5.50536,9.27381 17.16519,9.08175c1.89945,-0.03128 11.38866,-1.35382 11.38866,-1.35382c0,0 -4.01932,9.95678 -18.60334,17.00891c-1.95199,0.94389 -6.00938,4.96678 -6.00938,4.96678c0,0 21.29897,9.38732 38.32529,7.06539c0.16988,-0.02317 1.47092,-0.28549 1.47092,-0.28549c0,0 -16.9312,14.11254 -23.97869,17.66705c-11.47094,5.60456 -25.73141,9.8963 -25.73141,9.8963v37.97298z"/><path d="M75.74221,285.3253v-37.97297c0,0 -14.26047,-4.29174 -25.73141,-9.8963c-7.0475,-3.55452 -23.97869,-17.66706 -23.97869,-17.66706c0,0 1.30104,0.26233 1.47093,0.28549c17.02632,2.32193 38.32529,-7.06539 38.32529,-7.06539c0,0 -4.05739,-4.02289 -6.00938,-4.96679c-14.58401,-7.05213 -18.60334,-17.00891 -18.60334,-17.00891c0,0 9.48922,1.32253 11.38866,1.35382c11.65983,0.19206 17.16519,-9.08175 17.16519,-9.08175c0,0 -1.33002,-1.71043 -2.3814,-2.13548c-7.34647,-2.97003 -10.2846,-13.08417 -10.2846,-13.08417c0,0 3.40018,1.84284 3.82494,2.05314c8.14533,4.03265 11.27463,-4.69437 11.27463,-4.69437c0,0 -1.68466,-0.46861 -2.04216,-0.61487c-4.1556,-1.70013 -4.7815,-8.78097 -4.7815,-8.78097c0,0 1.16676,0.64094 1.58907,0.93957c3.92538,2.77585 9.45098,-5.17907 9.45098,-5.17907c0,0 -1.43162,-0.42604 -1.6526,-0.49899c-1.71482,-0.56606 -4.22467,-6.22916 -4.22467,-6.22916c0,0 1.30618,0.70527 1.72343,0.85667c5.28243,1.91677 6.44587,-2.89799 6.44587,-2.89799c0,0 -1.54657,-0.58581 -2.32231,-1.46268c-0.64844,-0.73296 -0.96892,-1.96913 -0.96892,-1.96913c0,0 0.87972,0.13954 1.34096,0.26434c2.5092,0.6789 6.30037,-8.25821 6.30037,-8.25821l7.18859,139.98751v13.72367z" data-paper-data="{&quot;index&quot;:null}"/></g><g fill="#08576d"><path d="M233.25595,290.09316l-0.16921,-14.15834l7.52584,-146.55503c0,0 4.13826,9.14721 6.76517,8.43646c0.48288,-0.13065 1.40387,-0.27674 1.40387,-0.27674c0,0 -0.33553,1.29417 -1.01439,2.06151c-0.81214,0.918 -2.43126,1.5313 -2.43126,1.5313c0,0 1.21802,5.04065 6.74828,3.03396c0.43682,-0.1585 1.80428,-0.89686 1.80428,-0.89686c0,0 -2.62761,5.92878 -4.42287,6.52139c-0.23135,0.07637 -1.73013,0.5224 -1.73013,0.5224c0,0 5.78484,8.32813 9.89438,5.42204c0.44212,-0.31264 1.66362,-0.98365 1.66362,-0.98365c0,0 -0.65526,7.41304 -5.00583,9.19294c-0.37427,0.15312 -2.13797,0.64372 -2.13797,0.64372c0,0 3.27612,9.13645 11.80358,4.9146c0.4447,-0.22016 4.00439,-2.14946 4.00439,-2.14946c0,0 -3.07598,10.58864 -10.76711,13.69801c-1.10071,0.44499 -2.49312,2.23566 -2.49312,2.23566c0,0 5.76364,9.70889 17.97049,9.50782c1.98856,-0.03276 11.92296,-1.41733 11.92296,-1.41733c0,0 -4.20789,10.4239 -19.47611,17.80688c-2.04357,0.98818 -6.2913,5.1998 -6.2913,5.1998c0,0 22.29821,9.82772 40.12332,7.39686c0.17786,-0.02425 1.53994,-0.29888 1.53994,-0.29888c0,0 -17.72553,14.77463 -25.10366,18.4959c-12.0091,5.8675 -26.93861,10.36059 -26.93861,10.36059v39.75448z"/><path d="M232.94774,290.29066v-39.75448c0,0 -15.09873,-0.70283 -27.10783,-6.57033c-7.37813,-3.72129 -25.10366,-18.4959 -25.10366,-18.4959c0,0 1.36208,0.27463 1.53994,0.29889c17.82511,2.43086 42.98429,-13.54792 42.98429,-13.54792c0,0 -1.11381,-0.00009 -3.15738,-0.98827c-15.26822,-7.38298 -19.47611,-17.80688 -19.47611,-17.80688c0,0 9.9344,1.38457 11.92296,1.41733c12.20685,0.20107 11.97561,-7.5683 11.97561,-7.5683c0,0 -4.94311,-3.42208 -6.04381,-3.86707c-7.69113,-3.10937 -10.76711,-13.69801 -10.76711,-13.69801c0,0 3.55969,1.9293 4.00439,2.14946c8.52747,4.22184 15.35429,-3.2832 15.35429,-3.2832c0,0 -3.77896,-1.64218 -4.15323,-1.7953c-4.35056,-1.7799 -4.47801,-9.24092 -4.47801,-9.24092c0,0 2.70896,1.87058 3.15108,2.18322c4.10954,2.90608 9.89437,-5.42205 9.89437,-5.42205c0,0 -3.39413,-3.17754 -3.62547,-3.25391c-1.79527,-0.59261 -4.42287,-6.52139 -4.42287,-6.52139c0,0 1.36746,0.73835 1.80429,0.89686c5.53026,2.0067 8.02218,-2.66387 8.02218,-2.66387c0,0 -1.61912,-0.61328 -2.43126,-1.53129c-0.67885,-0.76734 -1.01438,-2.06152 -1.01438,-2.06152c0,0 0.92099,0.1461 1.40387,0.27675c2.62691,0.71075 7.3866,-10.07448 7.3866,-10.07448l7.52584,150.1361v14.36752z" data-paper-data="{&quot;index&quot;:null}"/></g><path d="M145.56047,314.83913c0,0 -20.29674,-18.37742 -16.08156,-36.20968c9.20628,-32.23847 119.45859,-16.44089 134.3403,15.44562c8.14634,17.45486 -8.71823,20.76406 -8.71823,20.76406z" fill="#066b73"/><g fill="#08576d"><path d="M322.3067,291.65484l-0.16922,-14.15833l7.52584,-146.55504c0,0 4.13826,9.14721 6.76517,8.43646c0.48288,-0.13065 1.40387,-0.27674 1.40387,-0.27674c0,0 -0.33553,1.29417 -1.01439,2.06151c-0.81214,0.918 -2.43126,1.5313 -2.43126,1.5313c0,0 1.21803,5.04065 6.74828,3.03395c0.43682,-0.1585 1.80428,-0.89686 1.80428,-0.89686c0,0 -2.62761,5.92879 -4.42287,6.5214c-0.23134,0.07637 -1.73014,0.5224 -1.73014,0.5224c0,0 5.78483,8.32813 9.89437,5.42205c0.44212,-0.31264 1.66362,-0.98365 1.66362,-0.98365c0,0 -0.65526,7.41304 -5.00583,9.19293c-0.37427,0.15312 -2.13797,0.64372 -2.13797,0.64372c0,0 3.27612,9.13644 11.80358,4.9146c0.4447,-0.22016 4.00439,-2.14946 4.00439,-2.14946c0,0 -3.07598,10.58864 -10.76711,13.69801c-1.10071,0.44499 -2.49312,2.23566 -2.49312,2.23566c0,0 5.76364,9.7089 17.97049,9.50783c1.98856,-0.03276 11.92296,-1.41734 11.92296,-1.41734c0,0 -4.20789,10.42391 -19.47611,17.80689c-2.04357,0.98818 -6.2913,5.1998 -6.2913,5.1998c0,0 22.29821,9.82772 40.12332,7.39686c0.17786,-0.02425 1.53994,-0.29888 1.53994,-0.29888c0,0 -17.72553,14.77463 -25.10366,18.4959c-12.0091,5.8675 -26.93862,10.36059 -26.93862,10.36059v39.75447z"/><path d="M321.99849,291.85234v-39.75448c0,0 -15.09873,-0.70283 -27.10783,-6.57033c-7.37813,-3.72129 -25.10366,-18.4959 -25.10366,-18.4959c0,0 1.36208,0.27464 1.53994,0.29889c17.82511,2.43086 42.98429,-13.54793 42.98429,-13.54793c0,0 -1.11381,-0.00009 -3.15738,-0.98827c-15.26822,-7.38298 -19.47611,-17.80687 -19.47611,-17.80687c0,0 9.9344,1.38457 11.92296,1.41733c12.20686,0.20107 11.9756,-7.5683 11.9756,-7.5683c0,0 -4.94311,-3.42208 -6.04381,-3.86707c-7.69113,-3.10937 -10.7671,-13.69801 -10.7671,-13.69801c0,0 3.55969,1.92931 4.00438,2.14947c8.52747,4.22184 15.35429,-3.2832 15.35429,-3.2832c0,0 -3.77897,-1.64218 -4.15324,-1.7953c-4.35057,-1.7799 -4.47801,-9.24092 -4.47801,-9.24092c0,0 2.70896,1.87058 3.15108,2.18322c4.10954,2.90608 9.89437,-5.42204 9.89437,-5.42204c0,0 -3.39413,-3.17755 -3.62547,-3.25391c-1.79526,-0.59261 -4.42287,-6.52139 -4.42287,-6.52139c0,0 1.36746,0.73836 1.80428,0.89686c5.53026,2.0067 8.02218,-2.66388 8.02218,-2.66388c0,0 -1.61912,-0.61328 -2.43126,-1.53129c-0.67885,-0.76734 -1.01438,-2.06152 -1.01438,-2.06152c0,0 0.92099,0.1461 1.40387,0.27675c2.62691,0.71075 7.3866,-10.07448 7.3866,-10.07448l7.52584,150.1361v14.36752z" data-paper-data="{&quot;index&quot;:null}"/></g><path d="M-1.4895,314.78112v-56.2151c0,0 147.01509,-3.26396 154.2148,28.45214c2.59267,11.42122 0.22228,27.76295 0.22228,27.76295z" fill="#066b73"/><path d="M303.7942,314.89714c0,0 -2.43512,-12.1739 -1.80586,-28.71044c1.29454,-34.01968 177.24638,-27.50465 177.24638,-27.50465v56.2151z" fill="#066b73"/><path d="M199.21121,315.02912c0,0 -16.86456,-3.39192 -8.71823,-21.28304c1.80982,-43.9505 125.13403,-48.87589 134.34031,-15.83167c4.21517,18.27797 -16.08157,37.1147 -16.08157,37.1147z" data-paper-data="{&quot;index&quot;:null}" fill="#066b73"/><g fill="#066b73"><path d="M195.51016,301.55281v-16.55222l8.37866,-168.83996c0,0 4.4188,10.77911 7.3434,9.96028c0.5376,-0.15052 1.56296,-0.31882 1.56296,-0.31882c0,0 -0.37355,1.49097 -1.12933,2.37499c-0.90418,1.0576 -2.70676,1.76413 -2.70676,1.76413c0,0 1.35605,5.80712 7.51298,3.49529c0.48632,-0.18261 2.00875,-1.03324 2.00875,-1.03324c0,0 -2.92536,6.83031 -4.92406,7.51303c-0.25755,0.08798 -1.9262,0.60183 -1.9262,0.60183c0,0 6.44038,9.59448 11.0156,6.24651c0.49221,-0.36019 1.85214,-1.13322 1.85214,-1.13322c0,0 -0.7295,8.54025 -5.57307,10.59079c-0.41668,0.1764 -2.38025,0.7416 -2.38025,0.7416c0,0 3.64737,10.52571 13.14115,5.66191c0.49509,-0.25364 4.45816,-2.47632 4.45816,-2.47632c0,0 -3.42453,12.19874 -11.98722,15.78091c-1.22544,0.51266 -2.77563,2.57561 -2.77563,2.57561c0,0 6.41676,11.18521 20.00688,10.95357c2.2139,-0.03773 13.27407,-1.63285 13.27407,-1.63285c0,0 -4.68472,12.00896 -21.68312,20.51458c-2.27515,1.13844 -7.00423,5.99048 -7.00423,5.99048c0,0 24.82502,11.32211 44.67005,8.52161c0.19801,-0.02794 1.71444,-0.34434 1.71444,-0.34434c0,0 -19.73416,17.02123 -27.94838,21.30836c-13.36997,6.7597 -29.99126,11.93599 -29.99126,11.93599v45.79949z"/><path d="M195.16702,301.78034v-45.79948c0,0 -16.6213,-5.1763 -29.99126,-11.93599c-8.21421,-4.28713 -27.94837,-21.30837 -27.94837,-21.30837c0,0 1.51642,0.31639 1.71444,0.34433c19.84504,2.8005 44.67005,-8.52161 44.67005,-8.52161c0,0 -4.72908,-4.85205 -7.00423,-5.99049c-16.9984,-8.50562 -21.68312,-20.51457 -21.68312,-20.51457c0,0 11.06016,1.59512 13.27406,1.63285c13.59013,0.23164 20.00689,-10.95357 20.00689,-10.95357c0,0 -1.55021,-2.06296 -2.77564,-2.57563c-8.56268,-3.58218 -11.98721,-15.78091 -11.98721,-15.78091c0,0 3.96308,2.22267 4.45816,2.47631c9.49379,4.8638 13.14114,-5.66192 13.14114,-5.66192c0,0 -1.96356,-0.56519 -2.38024,-0.74159c-4.84357,-2.05054 -5.57307,-10.5908 -5.57307,-10.5908c0,0 1.35992,0.77304 1.85214,1.13323c4.57522,3.34797 11.01559,-6.24651 11.01559,-6.24651c0,0 -1.66863,-0.51386 -1.9262,-0.60184c-1.99871,-0.68273 -4.92406,-7.51303 -4.92406,-7.51303c0,0 1.52241,0.85063 2.00874,1.03323c6.15694,2.31183 7.51299,-3.49528 7.51299,-3.49528c0,0 -1.8026,-0.70655 -2.70678,-1.76414c-0.75579,-0.88403 -1.12933,-2.37498 -1.12933,-2.37498c0,0 1.02535,0.16831 1.56296,0.31883c2.92459,0.81882 7.53574,-10.05646 7.53574,-10.05646l8.18632,168.93614v16.55222z" data-paper-data="{&quot;index&quot;:null}"/></g><g fill="#066b73"><path d="M280.6051,293.63958v-17.93447l9.17314,-182.49732c0,0 5.17551,11.23705 8.4546,10.34985c0.60276,-0.16308 1.7524,-0.34545 1.7524,-0.34545c0,0 -0.41883,1.61548 -1.26622,2.57332c-1.01376,1.14592 -3.03485,1.91146 -3.03485,1.91146c0,0 1.52041,6.29207 8.42364,3.78718c0.54528,-0.19786 2.25223,-1.11952 2.25223,-1.11952c0,0 -3.27995,7.40069 -5.52092,8.14043c-0.28878,0.09533 -2.15967,0.6521 -2.15967,0.6521c0,0 7.22101,10.3957 12.3508,6.76815c0.55187,-0.39026 2.07664,-1.22786 2.07664,-1.22786c0,0 -0.81793,9.25343 -6.24859,11.47521c-0.46719,0.19113 -2.66876,0.80354 -2.66876,0.80354c0,0 4.08946,11.4047 14.734,6.13473c0.55509,-0.27482 4.99854,-2.68311 4.99854,-2.68311c0,0 -3.83963,13.21744 -13.4402,17.09876c-1.37397,0.55547 -3.11208,2.7907 -3.11208,2.7907c0,0 7.19455,12.11927 22.43194,11.86828c2.48225,-0.04089 14.88302,-1.7692 14.88302,-1.7692c0,0 -5.25257,13.0118 -24.31135,22.22771c-2.55091,1.23351 -7.85322,6.49074 -7.85322,6.49074c0,0 27.83408,12.2676 50.08454,9.23324c0.22201,-0.03028 1.92224,-0.37309 1.92224,-0.37309c0,0 -22.12616,18.44265 -31.33602,23.08779c-14.99054,7.32419 -33.62653,12.93276 -33.62653,12.93276v49.62412z"/><path d="M280.22036,293.8861v-49.62412c0,0 -18.63598,-5.60857 -33.62652,-12.93276c-9.20987,-4.64515 -31.33602,-23.08779 -31.33602,-23.08779c0,0 1.70023,0.34281 1.92225,0.37309c22.25046,3.03436 50.08454,-9.23325 50.08454,-9.23325c0,0 -5.3023,-5.25723 -7.85321,-6.49074c-19.05879,-9.21591 -24.31135,-22.22771 -24.31135,-22.22771c0,0 12.40077,1.72832 14.88302,1.7692c15.23739,0.25098 22.43194,-11.86828 22.43194,-11.86828c0,0 -1.7381,-2.23523 -3.11207,-2.79071c-9.60057,-3.88132 -13.4402,-17.09876 -13.4402,-17.09876c0,0 4.44344,2.40829 4.99854,2.68311c10.64454,5.26997 14.734,-6.13473 14.734,-6.13473c0,0 -2.20157,-0.61241 -2.66876,-0.80354c-5.43066,-2.22178 -6.24859,-11.47521 -6.24859,-11.47521c0,0 1.52476,0.8376 2.07664,1.22786c5.1298,3.62756 12.3508,-6.76815 12.3508,-6.76815c0,0 -1.87089,-0.55676 -2.15967,-0.65209c-2.24097,-0.73973 -5.52092,-8.14044 -5.52092,-8.14044c0,0 1.70695,0.92167 2.25223,1.11953c6.90323,2.50489 8.42364,-3.78718 8.42364,-3.78718c0,0 -2.0211,-0.76555 -3.03486,-1.91146c-0.84739,-0.95784 -1.26622,-2.57332 -1.26622,-2.57332c0,0 1.14964,0.18237 1.7524,0.34545c3.27909,0.8872 8.2335,-10.79205 8.2335,-10.79205l9.39425,182.93953v17.93447z" data-paper-data="{&quot;index&quot;:null}"/></g><g fill="#066b73"><path d="M428.38363,310.20278v-22.30722l11.68473,-227.54349c0,0 6.16238,14.52687 10.24097,13.42335c0.74973,-0.20285 2.17967,-0.42968 2.17967,-0.42968c0,0 -0.52095,2.00935 -1.57495,3.20074c-1.26094,1.4253 -3.77481,2.37751 -3.77481,2.37751c0,0 1.89112,7.82618 10.47747,4.71056c0.67822,-0.2461 2.80136,-1.39248 2.80136,-1.39248c0,0 -4.07966,9.20512 -6.86701,10.12521c-0.35919,0.11856 -2.68624,0.81108 -2.68624,0.81108c0,0 8.98162,12.93037 15.36215,8.41835c0.68643,-0.48541 2.58295,-1.52723 2.58295,-1.52723c0,0 -1.01736,11.50959 -7.77211,14.27308c-0.5811,0.23773 -3.31944,0.99945 -3.31944,0.99945c0,0 5.08655,14.18537 18.32641,7.63048c0.69043,-0.34183 6.21727,-3.3373 6.21727,-3.3373c0,0 -4.77581,16.4401 -16.71717,21.26775c-1.70897,0.6909 -3.87085,3.47113 -3.87085,3.47113c0,0 8.94871,15.07417 27.90125,14.76199c3.08747,-0.05086 18.51177,-2.20057 18.51177,-2.20057c0,0 -6.53324,16.1843 -30.2389,27.64722c-3.17287,1.53426 -9.76797,8.0733 -9.76797,8.0733c0,0 34.62053,15.25866 62.29606,11.48448c0.27614,-0.03766 2.39092,-0.46406 2.39092,-0.46406c0,0 -27.52091,22.9393 -38.9763,28.71701c-18.64551,9.10996 -41.82528,16.086 -41.82528,16.086v61.72339z"/><path d="M427.9051,310.50941v-61.72339c0,0 -23.17977,-6.97603 -41.82528,-16.086c-11.45539,-5.77772 -38.97631,-28.71701 -38.97631,-28.71701c0,0 2.11478,0.4264 2.39092,0.46406c27.67553,3.77418 62.29606,-11.48448 62.29606,-11.48448c0,0 -6.5951,-6.53903 -9.76797,-8.07329c-23.70567,-11.46292 -30.2389,-27.64723 -30.2389,-27.64723c0,0 15.42429,2.14971 18.51176,2.20057c18.95254,0.31218 27.90125,-14.76199 27.90125,-14.76199c0,0 -2.16188,-2.78023 -3.87085,-3.47113c-11.94136,-4.82765 -16.71717,-21.26774 -16.71717,-21.26774c0,0 5.52684,2.99546 6.21727,3.33729c13.23987,6.55489 18.32642,-7.63048 18.32642,-7.63048c0,0 -2.73836,-0.76171 -3.31945,-0.99945c-6.75475,-2.76349 -7.77211,-14.27308 -7.77211,-14.27308c0,0 1.89652,1.04182 2.58295,1.52723c6.38053,4.51202 15.36216,-8.41834 15.36216,-8.41834c0,0 -2.32704,-0.69253 -2.68624,-0.81109c-2.78735,-0.9201 -6.86701,-10.12521 -6.86701,-10.12521c0,0 2.12314,1.14638 2.80136,1.39248c8.58636,3.11562 10.47747,-4.71056 10.47747,-4.71056c0,0 -2.51387,-0.95221 -3.77481,-2.37751c-1.054,-1.19138 -1.57495,-3.20073 -1.57495,-3.20073c0,0 1.42995,0.22682 2.17967,0.42967c4.07859,1.10352 10.50848,-13.53035 10.50848,-13.53035l11.41722,227.65049v22.30723z" data-paper-data="{&quot;index&quot;:null}"/></g><g fill="#066b73"><path d="M30.2908,300.93374l-0.19583,-16.385l8.70942,-169.60352c0,0 4.78908,10.58578 7.82912,9.76325c0.55882,-0.1512 1.62465,-0.32026 1.62465,-0.32026c0,0 -0.3883,1.4977 -1.17392,2.38572c-0.93986,1.06238 -2.81362,1.77212 -2.81362,1.77212c0,0 1.40958,5.83338 7.80957,3.5111c0.50552,-0.18344 2.08804,-1.03791 2.08804,-1.03791c0,0 -3.04084,6.8612 -5.11845,7.54701c-0.26773,0.08838 -2.00223,0.60456 -2.00223,0.60456c0,0 6.69461,9.63788 11.45045,6.27476c0.51165,-0.36181 1.92525,-1.13835 1.92525,-1.13835c0,0 -0.75831,8.57888 -5.79308,10.63869c-0.43313,0.1772 -2.47421,0.74496 -2.47421,0.74496c0,0 3.79135,10.57331 13.65991,5.68751c0.51463,-0.25478 4.63416,-2.48751 4.63416,-2.48751c0,0 -3.55972,12.25391 -12.46043,15.85228c-1.27381,0.51497 -2.88521,2.58727 -2.88521,2.58727c0,0 6.67007,11.23579 20.79668,11.0031c2.3013,-0.0379 13.79807,-1.64023 13.79807,-1.64023c0,0 -4.86966,12.06325 -22.5391,20.60735c-2.36496,1.14359 -7.28073,6.01757 -7.28073,6.01757c0,0 25.80502,11.37331 46.43346,8.56016c0.20583,-0.02807 1.78212,-0.34589 1.78212,-0.34589c0,0 -20.5132,17.09821 -29.05168,21.40472c-13.89776,6.79026 -31.1752,11.98998 -31.1752,11.98998v46.0066z"/><path d="M29.93412,301.1623v-46.0066c0,0 -17.47327,-0.81337 -31.37103,-7.60364c-8.53847,-4.30653 -29.05168,-21.40473 -29.05168,-21.40473c0,0 1.57629,0.31783 1.78212,0.3459c20.62844,2.81315 49.74436,-15.67858 49.74436,-15.67858c0,0 -1.28897,-0.00011 -3.65393,-1.14369c-17.66943,-8.54409 -22.53909,-20.60734 -22.53909,-20.60734c0,0 11.49677,1.60233 13.79807,1.64023c14.12661,0.23269 13.85899,-8.75856 13.85899,-8.75856c0,0 -5.72051,-3.96026 -6.99432,-4.47523c-8.9007,-3.59838 -12.46043,-15.85228 -12.46043,-15.85228c0,0 4.11952,2.23273 4.63415,2.48751c9.86857,4.8858 17.76903,-3.79955 17.76903,-3.79955c0,0 -4.37328,-1.90044 -4.80641,-2.07764c-5.03477,-2.05981 -5.18226,-10.69422 -5.18226,-10.69422c0,0 3.135,2.16475 3.64664,2.52656c4.75584,3.36311 11.45045,-6.27476 11.45045,-6.27476c0,0 -3.92792,-3.67727 -4.19564,-3.76565c-2.07761,-0.68581 -5.11845,-7.54701 -5.11845,-7.54701c0,0 1.58252,0.85448 2.08804,1.03791c6.39999,2.32228 9.28382,-3.08282 9.28382,-3.08282c0,0 -1.87376,-0.70974 -2.81362,-1.77212c-0.78561,-0.88802 -1.17392,-2.38573 -1.17392,-2.38573c0,0 1.06583,0.16907 1.62465,0.32027c3.04004,0.82253 8.54828,-11.65887 8.54828,-11.65887l8.70942,173.74778v16.62708z" data-paper-data="{&quot;index&quot;:null}"/></g></g></g></svg>
